# xmcd
#
# Track frame offsets:
# 150
# 13694
# 32135
# 49438
# 71154
# 103422
# 126567
# 143967
# 161974
# 182461
# 198892
#
# Disc length: 2985 seconds
#
# Revision: 1
# Processed by: cddbd v1.5.2PL0 Copyright (c) Steve Scherf et al.
# Submitted via: TinyPlayer 2.8
#
DISCID=ab0ba70b
DTITLE=Joanne Shaw Taylor - Wild
DYEAR=2016
DGENRE=Blues Rock
TTITLE0=Dyin' to Know
TTITLE1=Ready to Roll
TTITLE2=Get You Back
TTITLE3=No Reason to Stay
TTITLE4=Wild Is the Wind
TTITLE5=Wanna Be My Lover
TTITLE6=I'm in Chains
TTITLE7=I Wish I Could Wish You Back
TTITLE8=My Heart's Got a Mind of It's Own
TTITLE9=Nothin' to Lose
TTITLE10=Summertime
EXTD=Location:  - UPC: 5053760022350 - Catalogue number: AXE1104 - Label: Axehouse Music Ltd - ASIN: B01FVAH85S - Release Date: 2016 09 30 - Discogs: a1557105,m1075585,r9200570 - MUSICBRAINZ_ALBUMID: 383f4251-57ab-470d-a149-83234fdf9f5a - AMG: mn0001059252,mw0
EXTD=0029467
EXTT0=
EXTT1=
EXTT2=
EXTT3=
EXTT4=
EXTT5=
EXTT6=
EXTT7=
EXTT8=
EXTT9=
EXTT10=
PLAYORDER=
